<svg width="43" height="44" viewBox="0 0 43 44" fill="none" xmlns="http://www.w3.org/2000/svg">
<g clip-path="url(#clip0_176_418)">
<path d="M10 12.75C10 12.5511 10.079 12.3603 10.2197 12.2197C10.3603 12.079 10.5511 12 10.75 12H13C13.1673 12 13.3298 12.056 13.4616 12.159C13.5934 12.262 13.687 12.4062 13.7275 12.5685L14.335 15H31.75C31.8601 15.0001 31.9689 15.0245 32.0685 15.0713C32.1682 15.1182 32.2563 15.1864 32.3266 15.2712C32.3969 15.356 32.4477 15.4552 32.4753 15.5618C32.5029 15.6684 32.5068 15.7798 32.4865 15.888L30.2365 27.888C30.2043 28.0599 30.1131 28.2151 29.9786 28.3268C29.8442 28.4386 29.6749 28.4998 29.5 28.5H16C15.8251 28.4998 15.6558 28.4386 15.5214 28.3268C15.3869 28.2151 15.2957 28.0599 15.2635 27.888L13.015 15.9105L12.415 13.5H10.75C10.5511 13.5 10.3603 13.421 10.2197 13.2803C10.079 13.1397 10 12.9489 10 12.75ZM17.5 28.5C16.7044 28.5 15.9413 28.8161 15.3787 29.3787C14.8161 29.9413 14.5 30.7044 14.5 31.5C14.5 32.2956 14.8161 33.0587 15.3787 33.6213C15.9413 34.1839 16.7044 34.5 17.5 34.5C18.2957 34.5 19.0587 34.1839 19.6213 33.6213C20.1839 33.0587 20.5 32.2956 20.5 31.5C20.5 30.7044 20.1839 29.9413 19.6213 29.3787C19.0587 28.8161 18.2957 28.5 17.5 28.5ZM28 28.5C27.2044 28.5 26.4413 28.8161 25.8787 29.3787C25.3161 29.9413 25 30.7044 25 31.5C25 32.2956 25.3161 33.0587 25.8787 33.6213C26.4413 34.1839 27.2044 34.5 28 34.5C28.7957 34.5 29.5587 34.1839 30.1213 33.6213C30.6839 33.0587 31 32.2956 31 31.5C31 30.7044 30.6839 29.9413 30.1213 29.3787C29.5587 28.8161 28.7957 28.5 28 28.5ZM17.5 30C17.8978 30 18.2794 30.158 18.5607 30.4393C18.842 30.7206 19 31.1022 19 31.5C19 31.8978 18.842 32.2794 18.5607 32.5607C18.2794 32.842 17.8978 33 17.5 33C17.1022 33 16.7206 32.842 16.4393 32.5607C16.158 32.2794 16 31.8978 16 31.5C16 31.1022 16.158 30.7206 16.4393 30.4393C16.7206 30.158 17.1022 30 17.5 30ZM28 30C28.3978 30 28.7794 30.158 29.0607 30.4393C29.342 30.7206 29.5 31.1022 29.5 31.5C29.5 31.8978 29.342 32.2794 29.0607 32.5607C28.7794 32.842 28.3978 33 28 33C27.6022 33 27.2206 32.842 26.9393 32.5607C26.658 32.2794 26.5 31.8978 26.5 31.5C26.5 31.1022 26.658 30.7206 26.9393 30.4393C27.2206 30.158 27.6022 30 28 30Z" fill="#2B3029"/>
</g>
<rect x="0.5" y="1" width="42" height="42" rx="7.5" stroke="#2B3029"/>
<defs>
<clipPath id="clip0_176_418">
<rect width="24" height="24" fill="white" transform="translate(10 10.5)"/>
</clipPath>
</defs>
</svg>
