<svg width="16" height="16" viewBox="0 0 16 16" fill="none" xmlns="http://www.w3.org/2000/svg">
<path fill-rule="evenodd" clip-rule="evenodd" d="M1.64598 4.64599C1.69242 4.59943 1.7476 4.56249 1.80834 4.53728C1.86909 4.51207 1.93421 4.4991 1.99998 4.4991C2.06575 4.4991 2.13087 4.51207 2.19161 4.53728C2.25236 4.56249 2.30753 4.59943 2.35398 4.64599L7.99998 10.293L13.646 4.64599C13.6925 4.59951 13.7477 4.56263 13.8084 4.53747C13.8691 4.51231 13.9342 4.49936 14 4.49936C14.0657 4.49936 14.1308 4.51231 14.1916 4.53747C14.2523 4.56263 14.3075 4.59951 14.354 4.64599C14.4005 4.69248 14.4373 4.74767 14.4625 4.80841C14.4877 4.86915 14.5006 4.93425 14.5006 4.99999C14.5006 5.06574 14.4877 5.13084 14.4625 5.19158C14.4373 5.25232 14.4005 5.30751 14.354 5.35399L8.35398 11.354C8.30753 11.4006 8.25236 11.4375 8.19161 11.4627C8.13087 11.4879 8.06574 11.5009 7.99998 11.5009C7.93421 11.5009 7.86909 11.4879 7.80834 11.4627C7.7476 11.4375 7.69242 11.4006 7.64598 11.354L1.64598 5.35399C1.59942 5.30755 1.56247 5.25237 1.53727 5.19163C1.51206 5.13088 1.49908 5.06576 1.49908 4.99999C1.49908 4.93423 1.51206 4.8691 1.53727 4.80836C1.56247 4.74761 1.59942 4.69244 1.64598 4.64599Z" fill="black"/>
</svg>
