<svg width="64" height="64" viewBox="0 0 64 64" fill="none" xmlns="http://www.w3.org/2000/svg">
<path d="M40.96 38.7199L44.8 40.6399C46.4311 38.3999 46.72 36.4799 53.76 36.4799H55.6544L50.7904 14.8735C50.2528 12.5439 48.1792 10.8799 45.7984 10.8799H35.84V15.9999H45.7984L49.3824 31.9999H49.3568C41.28 34.5599 40.96 38.7199 40.96 38.7199Z" fill="black"/>
<path d="M53.7654 37.7598C49.5158 37.7598 46.0854 41.1902 46.0854 45.4398C46.0854 49.6894 49.5158 53.1198 53.7654 53.1198C58.015 53.1198 61.4454 49.6894 61.4454 45.4398C61.4454 41.1902 58.015 37.7598 53.7654 37.7598ZM53.7654 47.9998C52.3574 47.9998 51.2054 46.8478 51.2054 45.4398C51.2054 44.0318 52.3574 42.8798 53.7654 42.8798C55.1734 42.8798 56.3254 44.0318 56.3254 45.4398C56.3254 46.8478 55.1734 47.9998 53.7654 47.9998Z" fill="black"/>
<path d="M10.2401 37.7598C5.99046 37.7598 2.56006 41.1902 2.56006 45.4398C2.56006 49.6894 5.99046 53.1198 10.2401 53.1198C14.4897 53.1198 17.9201 49.6894 17.9201 45.4398C17.9201 41.1902 14.4897 37.7598 10.2401 37.7598ZM10.2401 47.9998C8.83206 47.9998 7.68006 46.8478 7.68006 45.4398C7.68006 44.0318 8.83206 42.8798 10.2401 42.8798C11.6481 42.8798 12.8001 44.0318 12.8001 45.4398C12.8001 46.8478 11.6481 47.9998 10.2401 47.9998Z" fill="black"/>
<path d="M29.44 44.16H19.2L34.56 51.84V46.72H44.7999L29.44 39.04V44.16Z" fill="black"/>
</svg>
